/* XPM */
static char * bitcoin32_xpm[] = {
"32 32 732 2",
"  	c None",
". 	c #B8B8B8",
"+ 	c #ADADAD",
"@ 	c #A6A6A6",
"# 	c #A5A5A5",
"$ 	c #A9AAAA",
"% 	c #B4B9BB",
"& 	c #C0CBCE",
"* 	c #CCDBDE",
"= 	c #D0E1E6",
"- 	c #CFDFE4",
"; 	c #CBDBDF",
"> 	c #CBDADD",
", 	c #CBDADE",
"' 	c #CDDEE1",
") 	c #D0E0E5",
"! 	c #CCDCDF",
"~ 	c #C3CFD2",
"{ 	c #B7BEBF",
"] 	c #ABADAE",
"^ 	c #A6A5A5",
"/ 	c #A7A7A7",
"( 	c #AAAAAA",
"_ 	c #B4B4B4",
": 	c #ACACAC",
"< 	c #9F9F9F",
"[ 	c #9B9B9B",
"} 	c #9E9E9E",
"| 	c #ABB1B1",
"1 	c #BCC9CC",
"2 	c #C8D9DE",
"3 	c #C6D7DA",
"4 	c #CADCE1",
"5 	c #C6D7DB",
"6 	c #B0B9BA",
"7 	c #A0A3A3",
"8 	c #A1A2A3",
"9 	c #A1A3A4",
"0 	c #A1A4A4",
"a 	c #A3A8A8",
"b 	c #ACB2B4",
"c 	c #B6C1C4",
"d 	c #C1D1D4",
"e 	c #C7D9DD",
"f 	c #C0CFD4",
"g 	c #ADB5B8",
"h 	c #9EA0A1",
"i 	c #9A9A9A",
"j 	c #9D9D9D",
"k 	c #A8A8A8",
"l 	c #B5B5B5",
"m 	c #A2A2A2",
"n 	c #979797",
"o 	c #939393",
"p 	c #9A9D9E",
"q 	c #B0BBBE",
"r 	c #C2D4D9",
"s 	c #BECED2",
"t 	c #ABB5B6",
"u 	c #A7AEAF",
"v 	c #C0D1D6",
"w 	c #C5D9DE",
"x 	c #ACB5B8",
"y 	c #939394",
"z 	c #939494",
"A 	c #949494",
"B 	c #949596",
"C 	c #A8B0B3",
"D 	c #B9C9CD",
"E 	c #C2D4D8",
"F 	c #B5C3C5",
"G 	c #9FA3A4",
"H 	c #969696",
"I 	c #919191",
"J 	c #8B8B8B",
"K 	c #8B8A8A",
"L 	c #969A9B",
"M 	c #B2C2C5",
"N 	c #BFD3D8",
"O 	c #A9B7BA",
"P 	c #96999A",
"Q 	c #8B8C8A",
"R 	c #919393",
"S 	c #B2C0C4",
"T 	c #C3D9DF",
"U 	c #B1C0C4",
"V 	c #8F9192",
"W 	c #8A8A8A",
"X 	c #8C8C8C",
"Y 	c #929494",
"Z 	c #A5AFB1",
"` 	c #BACCD1",
" .	c #B8C8CC",
"..	c #9EA5A6",
"+.	c #8C8D8D",
"@.	c #8F8F8F",
"#.	c #878787",
"$.	c #838383",
"%.	c #828282",
"&.	c #8F9495",
"*.	c #AFC1C5",
"=.	c #BAD0D5",
"-.	c #9CA5A8",
";.	c #858686",
">.	c #848484",
",.	c #9EA8AB",
"'.	c #BDD4DA",
").	c #B4C8CC",
"!.	c #7F7E7E",
"~.	c #818181",
"{.	c #848485",
"].	c #949A9D",
"^.	c #B0C2C7",
"/.	c #B6CCD1",
"(.	c #97A4A5",
"_.	c #818383",
":.	c #848383",
"<.	c #7C7C7C",
"[.	c #777777",
"}.	c #838788",
"|.	c #A8BBBF",
"1.	c #B0C7CC",
"2.	c #909A9C",
"3.	c #787878",
"4.	c #797979",
"5.	c #898F90",
"6.	c #B2C8CD",
"7.	c #B8D0D6",
"8.	c #A7B9BE",
"9.	c #9BA8AB",
"0.	c #8E9698",
"a.	c #7D7E7F",
"b.	c #777776",
"c.	c #797878",
"d.	c #898F91",
"e.	c #ABC1C5",
"f.	c #AEC6CB",
"g.	c #8A9495",
"h.	c #797A7A",
"i.	c #727272",
"j.	c #747676",
"k.	c #9AACAF",
"l.	c #AEC8CE",
"m.	c #8B969A",
"n.	c #707071",
"o.	c #6F6F6F",
"p.	c #707070",
"q.	c #727273",
"r.	c #8E9B9D",
"s.	c #B2CED4",
"t.	c #B2CCD3",
"u.	c #B2CCD2",
"v.	c #ADC5CC",
"w.	c #98A8AC",
"x.	c #797D7D",
"y.	c #6D6C6C",
"z.	c #707171",
"A.	c #848D8E",
"B.	c #A6BDC2",
"C.	c #A0B7BC",
"D.	c #7D8586",
"E.	c #686969",
"F.	c #7E8A8C",
"G.	c #A7C3CA",
"H.	c #8F9FA3",
"I.	c #696B6B",
"J.	c #656565",
"K.	c #666666",
"L.	c #676869",
"M.	c #808B8E",
"N.	c #A8C2C8",
"O.	c #AECBD2",
"P.	c #ADC9D0",
"Q.	c #ADCAD1",
"R.	c #ADCBD1",
"S.	c #AAC6CC",
"T.	c #8E9FA3",
"U.	c #696B6C",
"V.	c #646464",
"W.	c #859295",
"X.	c #A5BFC5",
"Y.	c #90A0A4",
"Z.	c #676B6B",
"`.	c #94ACAF",
" +	c #9BB4BA",
".+	c #6A6E70",
"++	c #5B5B5B",
"@+	c #5C5C5C",
"#+	c #65686A",
"$+	c #92A8AD",
"%+	c #ABCAD2",
"&+	c #A8C7CD",
"*+	c #A8C6CE",
"=+	c #A9C7CE",
"-+	c #AAC9D0",
";+	c #AACAD1",
">+	c #9CB6BB",
",+	c #6F7678",
"'+	c #585757",
")+	c #5C5D5D",
"!+	c #5A5A59",
"~+	c #666A6B",
"{+	c #91A6AB",
"]+	c #9FB9C0",
"^+	c #778487",
"/+	c #A2C1C8",
"(+	c #7B898E",
"_+	c #525252",
":+	c #535252",
"<+	c #535353",
"[+	c #606666",
"}+	c #97B2B8",
"|+	c #A6C7CE",
"1+	c #A4C4CB",
"2+	c #A4C5CD",
"3+	c #9DBAC0",
"4+	c #91ABB0",
"5+	c #8BA2A8",
"6+	c #95B0B6",
"7+	c #727F81",
"8+	c #4F4D4E",
"9+	c #707C7F",
"0+	c #9AB6BD",
"a+	c #8AA4AA",
"b+	c #96B4BB",
"c+	c #5B6263",
"d+	c #494847",
"e+	c #4A4A4A",
"f+	c #4A4B4B",
"g+	c #575D5E",
"h+	c #90ACB2",
"i+	c #A4C8D0",
"j+	c #95B2B9",
"k+	c #75868A",
"l+	c #5E6667",
"m+	c #5D6566",
"n+	c #60686A",
"o+	c #60696A",
"p+	c #5E6568",
"q+	c #545759",
"r+	c #484849",
"s+	c #4A4949",
"t+	c #484848",
"u+	c #494949",
"v+	c #4B4B4B",
"w+	c #494848",
"x+	c #565B5D",
"y+	c #879FA5",
"z+	c #93B3BB",
"A+	c #7F979D",
"B+	c #464747",
"C+	c #424141",
"D+	c #424242",
"E+	c #434343",
"F+	c #494C4C",
"G+	c #768B90",
"H+	c #8BA9B0",
"I+	c #5E696C",
"J+	c #596264",
"K+	c #819AA0",
"L+	c #80999E",
"M+	c #809A9F",
"N+	c #778B90",
"O+	c #575F61",
"P+	c #414040",
"Q+	c #4A4D4E",
"R+	c #515658",
"S+	c #494C4D",
"T+	c #424142",
"U+	c #434443",
"V+	c #464848",
"W+	c #708285",
"X+	c #86AFB8",
"Y+	c #607175",
"Z+	c #3B3A39",
"`+	c #3D3D3D",
" @	c #3C3C3C",
".@	c #3B3B3B",
"+@	c #4B5051",
"@@	c #556062",
"#@	c #576365",
"$@	c #7B9499",
"%@	c #6D8186",
"&@	c #555F60",
"*@	c #4C5354",
"=@	c #535E5F",
"-@	c #6A7E83",
";@	c #778F94",
">@	c #5B686A",
",@	c #5F6D70",
"'@	c #85A3AA",
")@	c #7F9AA0",
"!@	c #67797C",
"~@	c #484D4E",
"{@	c #3A3939",
"]@	c #3E3E3E",
"^@	c #3D3C3C",
"/@	c #343333",
"(@	c #4A595B",
"_@	c #76A4AF",
":@	c #334044",
"<@	c #1B1B1B",
"[@	c #282828",
"}@	c #2F2F2F",
"|@	c #333333",
"1@	c #363636",
"2@	c #373737",
"3@	c #44494D",
"4@	c #728A91",
"5@	c #697E82",
"6@	c #3E4242",
"7@	c #373636",
"8@	c #363737",
"9@	c #404445",
"0@	c #627478",
"a@	c #71898F",
"b@	c #5E6C70",
"c@	c #84A3AA",
"d@	c #97BDC6",
"e@	c #8FB2BA",
"f@	c #72898E",
"g@	c #43484A",
"h@	c #2D2C2C",
"i@	c #292A2A",
"j@	c #1F1F1F",
"k@	c #0F0E0E",
"l@	c #283538",
"m@	c #74A1AD",
"n@	c #212D31",
"o@	c #030304",
"p@	c #080808",
"q@	c #0D0D0D",
"r@	c #131313",
"s@	c #191919",
"t@	c #242424",
"u@	c #262626",
"v@	c #292828",
"w@	c #465155",
"x@	c #749199",
"y@	c #424B4D",
"z@	c #2C2C2B",
"A@	c #302F2F",
"B@	c #2E2D2D",
"C@	c #3F4649",
"D@	c #688086",
"E@	c #5B6D72",
"F@	c #6A858B",
"G@	c #8EB8C1",
"H@	c #8AB4BE",
"I@	c #82AAB3",
"J@	c #52696F",
"K@	c #151718",
"L@	c #070606",
"M@	c #040404",
"N@	c #000000",
"O@	c #1B2629",
"P@	c #75A2AB",
"Q@	c #202C30",
"R@	c #010101",
"S@	c #030303",
"T@	c #060606",
"U@	c #060505",
"V@	c #111515",
"W@	c #1C2324",
"X@	c #324245",
"Y@	c #5F8088",
"Z@	c #1D2325",
"`@	c #0E0D0D",
" #	c #111111",
".#	c #1B2022",
"+#	c #4D686E",
"@#	c #4C666D",
"##	c #516E74",
"$#	c #7EADB8",
"%#	c #7BAAB5",
"&#	c #7DACB7",
"*#	c #60848D",
"=#	c #1D272A",
"-#	c #161D1F",
";#	c #76A4AE",
">#	c #222F32",
",#	c #030202",
"'#	c #050505",
")#	c #1B2527",
"!#	c #4B696F",
"~#	c #435C62",
"{#	c #273539",
"]#	c #597A84",
"^#	c #1A2225",
"/#	c #010000",
"(#	c #050606",
"_#	c #020201",
":#	c #182122",
"<#	c #4D6B72",
"[#	c #3F585E",
"}#	c #53727A",
"|#	c #7DACB8",
"1#	c #7AA9B4",
"2#	c #73A0AA",
"3#	c #5A7C85",
"4#	c #455E64",
"5#	c #34474C",
"6#	c #212D30",
"7#	c #2F4145",
"8#	c #79A6B1",
"9#	c #2C3C40",
"0#	c #14191A",
"a#	c #537179",
"b#	c #7AA7B2",
"c#	c #60848C",
"d#	c #263438",
"e#	c #4E6C75",
"f#	c #445D63",
"g#	c #0C0F10",
"h#	c #030101",
"i#	c #040201",
"j#	c #101314",
"k#	c #3F565B",
"l#	c #53737A",
"m#	c #3B5156",
"n#	c #699099",
"o#	c #7CA9B5",
"p#	c #7FAEB9",
"q#	c #7EADB7",
"r#	c #7CABB5",
"s#	c #75A2AC",
"t#	c #6C959E",
"u#	c #6C959D",
"v#	c #7BA7B1",
"w#	c #42585F",
"x#	c #09090A",
"y#	c #0B0B0B",
"z#	c #0C0C0C",
"A#	c #334347",
"B#	c #75A0AA",
"C#	c #40565C",
"D#	c #2A393D",
"E#	c #527076",
"F#	c #4A646A",
"G#	c #2F3E42",
"H#	c #253032",
"I#	c #303F42",
"J#	c #4B646B",
"K#	c #56747B",
"L#	c #526F77",
"M#	c #7EACB7",
"N#	c #80AFB9",
"O#	c #78A3AD",
"P#	c #59787F",
"Q#	c #4E696E",
"R#	c #5F8189",
"S#	c #6C949D",
"T#	c #76A2AC",
"U#	c #7EABB5",
"V#	c #749CA6",
"W#	c #5F7E86",
"X#	c #141717",
"Y#	c #0F0F0F",
"Z#	c #0E0E0E",
"`#	c #111314",
" $	c #4C6469",
".$	c #83B3BE",
"+$	c #7FADB7",
"@$	c #7FACB6",
"#$	c #6C929B",
"$$	c #3D5155",
"%$	c #303E42",
"&$	c #445A5F",
"*$	c #526C74",
"=$	c #5B7580",
"-$	c #5A757C",
";$	c #485F64",
">$	c #354548",
",$	c #86B7C2",
"'$	c #83B3BD",
")$	c #78A2AC",
"!$	c #516B71",
"~$	c #222A2C",
"{$	c #16191A",
"]$	c #1F2728",
"^$	c #273133",
"/$	c #38494D",
"($	c #63868D",
"_$	c #617F85",
":$	c #7AA2AC",
"<$	c #2B3538",
"[$	c #121313",
"}$	c #131212",
"|$	c #141616",
"1$	c #4B6267",
"2$	c #86B5BF",
"3$	c #81ADB7",
"4$	c #81AEB8",
"5$	c #81ADB8",
"6$	c #749BA4",
"7$	c #58747A",
"8$	c #465B60",
"9$	c #3F5156",
"0$	c #3A474D",
"a$	c #2A3132",
"b$	c #1C1F21",
"c$	c #191C1D",
"d$	c #38484B",
"e$	c #5C7A81",
"f$	c #546F74",
"g$	c #3C4D50",
"h$	c #1F2425",
"i$	c #100F0F",
"j$	c #111010",
"k$	c #252D2F",
"l$	c #66878F",
"m$	c #3E4E52",
"n$	c #7EA8B2",
"o$	c #526A70",
"p$	c #161617",
"q$	c #151515",
"r$	c #161616",
"s$	c #313D40",
"t$	c #7BA4AD",
"u$	c #84B0BA",
"v$	c #83AFB9",
"w$	c #84AFB9",
"x$	c #85B1BB",
"y$	c #80AAB3",
"z$	c #789FA8",
"A$	c #6B8D95",
"B$	c #364245",
"C$	c #110F0E",
"D$	c #141313",
"E$	c #161515",
"F$	c #1B1D1D",
"G$	c #202525",
"H$	c #222728",
"I$	c #1F2324",
"J$	c #18191A",
"K$	c #151414",
"L$	c #425559",
"M$	c #789EA8",
"N$	c #242829",
"O$	c #638389",
"P$	c #779CA6",
"Q$	c #313A3D",
"R$	c #161414",
"S$	c #1A1A1A",
"T$	c #181717",
"U$	c #384447",
"V$	c #7BA3AC",
"W$	c #88B4BF",
"X$	c #88B4BE",
"Y$	c #88B3BD",
"Z$	c #8BB8C2",
"`$	c #87B3BE",
" %	c #65848B",
".%	c #293031",
"+%	c #171616",
"@%	c #171716",
"#%	c #181818",
"$%	c #161415",
"%%	c #2A3133",
"&%	c #688990",
"*%	c #73979F",
"=%	c #1E1E1E",
"-%	c #3D4B4E",
";%	c #7BA1AA",
">%	c #637E85",
",%	c #27292B",
"'%	c #181515",
")%	c #303839",
"!%	c #68868C",
"~%	c #88B2BC",
"{%	c #7FA7B1",
"]%	c #74979F",
"^%	c #7FA6AF",
"/%	c #81A9B3",
"(%	c #7599A1",
"_%	c #597077",
":%	c #313A3B",
"<%	c #1D1D1C",
"[%	c #1D1D1D",
"}%	c #1D1E1E",
"|%	c #1A1919",
"1%	c #212324",
"2%	c #52686D",
"3%	c #799FA7",
"4%	c #52676C",
"5%	c #212121",
"6%	c #252828",
"7%	c #586F73",
"8%	c #83ABB4",
"9%	c #576C71",
"0%	c #394245",
"a%	c #658086",
"b%	c #89B3BC",
"c%	c #82A9B4",
"d%	c #54686E",
"e%	c #374043",
"f%	c #455458",
"g%	c #49585C",
"h%	c #3C4749",
"i%	c #2B2E30",
"j%	c #201F1F",
"k%	c #212120",
"l%	c #222222",
"m%	c #212222",
"n%	c #1F1E1E",
"o%	c #242525",
"p%	c #4B5C61",
"q%	c #799DA6",
"r%	c #658087",
"s%	c #303638",
"t%	c #232323",
"u%	c #33393A",
"v%	c #6B878D",
"w%	c #82A8B1",
"x%	c #76979E",
"y%	c #88B0B9",
"z%	c #85ABB5",
"A%	c #5C7277",
"B%	c #2C2F30",
"C%	c #222020",
"D%	c #252626",
"E%	c #262727",
"F%	c #242323",
"G%	c #232222",
"H%	c #252525",
"I%	c #4C5C5F",
"J%	c #7A9DA5",
"K%	c #719098",
"L%	c #3C4648",
"M%	c #252424",
"N%	c #2B2B2B",
"O%	c #272727",
"P%	c #393F41",
"Q%	c #6B868C",
"R%	c #8CB5BE",
"S%	c #8BB3BD",
"T%	c #627A80",
"U%	c #2A2C2C",
"V%	c #232221",
"W%	c #292928",
"X%	c #292929",
"Y%	c #262525",
"Z%	c #242222",
"`%	c #313335",
" &	c #586B6F",
".&	c #82A5AD",
"+&	c #7998A0",
"@&	c #475558",
"#&	c #282727",
"$&	c #2C2C2C",
"%&	c #2A2A2A",
"&&	c #282728",
"*&	c #3A4142",
"=&	c #698288",
"-&	c #86A9B2",
";&	c #76949C",
">&	c #444F51",
",&	c #313334",
"'&	c #272524",
")&	c #282626",
"!&	c #2A2A29",
"~&	c #282726",
"{&	c #262524",
"]&	c #2E2E2E",
"^&	c #444D50",
"/&	c #6A848A",
"(&	c #86ABB3",
"_&	c #749197",
":&	c #485355",
"<&	c #2D2D2E",
"[&	c #2A2929",
"}&	c #2D2D2D",
"|&	c #303030",
"1&	c #3A4041",
"2&	c #596F73",
"3&	c #7CA2A9",
"4&	c #7F9FA8",
"5&	c #6A8289",
"6&	c #4D5B5E",
"7&	c #303132",
"8&	c #2B2A2A",
"9&	c #2A2928",
"0&	c #2A2828",
"a&	c #2F2F30",
"b&	c #363B3D",
"c&	c #495356",
"d&	c #647A7E",
"e&	c #7D9DA4",
"f&	c #81A2A9",
"g&	c #667D82",
"h&	c #3F4748",
"i&	c #2E2F2F",
"j&	c #313131",
"k&	c #353839",
"l&	c #4B5B5E",
"m&	c #698085",
"n&	c #7E9EA4",
"o&	c #82A3AA",
"p&	c #769298",
"q&	c #667A7F",
"r&	c #58666B",
"s&	c #4F5A5D",
"t&	c #4C5759",
"u&	c #4A5456",
"v&	c #4B5558",
"w&	c #4E5A5D",
"x&	c #566568",
"y&	c #63777C",
"z&	c #718B92",
"A&	c #80A0A8",
"B&	c #83A4AC",
"C&	c #738E93",
"D&	c #536164",
"E&	c #393C3D",
"F&	c #2D2B2B",
"G&	c #383D3D",
"H&	c #749096",
"I&	c #7B989F",
"J&	c #718A91",
"K&	c #697F85",
"L&	c #657B80",
"M&	c #62777C",
"N&	c #64797E",
"O&	c #687F84",
"P&	c #70898F",
"Q&	c #79979E",
"R&	c #7F9FA7",
"S&	c #78959C",
"T&	c #5E7076",
"U&	c #404748",
"V&	c #2F302F",
"W&	c #2C2A2A",
"    . + @ @ @ # $ % & * = - ; > , > * ' ) ! ~ { ] # ^ / ( _     ",
"  : < [ [ [ } | 1 2 3 4 5 6 7 8 9 9 0 a b c d e f g h i [ j k l ",
"m n o o o p q r s t u v w x o o y y z A A B p C D E F G o o H } ",
"I J J K L M N O P Q R S T U V W X J J J J X J J Y Z `  ...+.W @.",
"#.$.%.&.*.=.-.;.%.%.>.,.'.).&.!.~.$.$.$.$.$.$.$.%.{.].^./.(._.:.",
"<.[.}.|.1.2.3.4.4.4.4.5.6.7.8.9.0.a.b.4.4.4.4.4.4.c.4.d.e.f.g.h.",
"i.j.k.l.m.n.o.p.p.o.q.r.l.s.t.u.v.w.x.y.o.p.p.p.p.p.o.z.A.B.C.D.",
"E.F.G.H.I.J.K.K.K.L.M.N.O.P.Q.Q.R.S.T.U.V.K.K.K.K.K.K.J.E.W.X.Y.",
"Z.`. +.+++@+@+@+@+#+$+%+&+*+=+-+;+;+>+,+'+)+@+@+@+@+@+@+!+~+{+]+",
"^+/+(+_+:+<+<+<+<+[+}+|+1+2+3+4+5+6+}+7+8+<+<+<+<+<+<+<+_+<+9+0+",
"a+b+c+d+e+e+e+e+f+g+h+i+j+k+l+m+n+o+p+q+r+s+t+u+e+e+v+v+v+w+x+y+",
"z+A+B+C+D+E+E+E+D+F+G+H+I+J+G+K+L+M+N+O+P+Q+R+S+T+P+U+E+E+D+V+W+",
"X+Y+Z+`+`+`+ @ @.@`++@@@#@$@%@&@*@=@-@;@>@,@'@)@!@~@{@`+]@^@/@(@",
"_@:@<@[@}@|@1@2@2@2@2@3@4@5@6@7@1@8@9@0@a@b@c@d@e@f@g@h@i@j@k@l@",
"m@n@o@p@q@r@s@j@t@u@v@w@x@y@z@}@A@}@B@C@D@E@F@G@H@I@J@K@L@M@N@O@",
"P@Q@R@S@M@M@M@T@U@V@W@X@Y@Z@`@ # # #`@.#+#@###$#%#&#*#=#N@N@N@-#",
";#>#,#'#'#'#M@M@)#!#~#{#]#^#/#'#(#'#_#:#<#[#}#|#1#%#2#3#4#5#6#7#",
"8#9#'#p@p@p@p@0#a#b#c#d#e#f#g#/#h#i#j#k#l#m#n#$#o#&#p#q#r#s#t#u#",
"v#w#x#y#y#y#z#A#8#p#B#C#D#E#F#G#H#I#J#K#k#L#r#M#N#O#P#Q#R#S#T#U#",
"V#W#X#q@Y#Z#`# $.$+$@$#$$$%$&$*$=$-$;$>$F#v#,$'$)$!$~${$]$^$/$($",
"_$:$<$`@[$}$|$1$2$3$4$5$6$7$8$9$0$a$b$c$d$7$e$f$g$h$ #i$j$`@k$l$",
"m$n$o$p$q$r$r$s$t$u$v$w$x$y$z$A$B$C$D$E$F$G$H$I$J$K$q$r$D$E$L$M$",
"N$O$P$Q$R$S$T$U$V$W$X$Y$Y$Z$`$ %.%+%S$s@T$+%+%@%#%S$S$s@$%%%&%*%",
"=%-%;%>%,%'%)%!%~%{%]%^%/%(%_%:%<%[%=%=%=%=%=%=%=%=%}%|%1%2%3%4%",
"5%6%7%8%9%0%a%b%c%d%e%f%g%h%i%j%k%l%l%l%l%l%l%l%l%m%n%o%p%q%r%s%",
"u@t%u%v%w%x%y%z%A%B%C%D%E%F%G%H%u@u@u@u@u@u@u@D%H%C%E%I%J%K%L%M%",
"N%O%[@P%Q%R%S%T%U%V%W%[@[@[@X%X%X%X%X%X%X%X%X%Y%Z%`% &.&+&@&O%#&",
"}@$&%&&&*&=&-&;&>&,&'&)&!&N%N%N%N%N%N%N%%&~&{&]&^&/&(&_&:&<&[&]&",
"}&|&]&]&N%1&2&3&4&5&6&1&7&8&v@[&[&9&0&8&a&b&c&d&e&f&g&h&h@h@|&i&",
"  $&|&j&j&A@k&l&m&n&o&p&q&r&s&t&u&v&w&x&y&z&A&B&C&D&E&A@|&j&]&  ",
"      $&}&|&F&$&G&D&H&f&I&J&K&L&M&N&O&P&Q&R&S&T&U&V&W&]&$&      ",
"                                                                "};
